<svg xmlns="http://www.w3.org/2000/svg" xmlns:xlink="http://www.w3.org/1999/xlink" width="1851" height="381" viewBox="0 0 1851 381">
  <defs>
    <linearGradient id="linear-gradient" x1="0.568" y1="0.5" x2="0.586" y2="0.5" gradientUnits="objectBoundingBox">
      <stop offset="0" stop-color="#ffcd00"/>
      <stop offset="1" stop-color="#b5b5b5"/>
    </linearGradient>
    <clipPath id="clip-path">
      <rect id="Rectangle_1562" data-name="Rectangle 1562" width="186" height="381" transform="translate(0 0)" fill="#fff" stroke="#707070" stroke-width="1"/>
    </clipPath>
    <clipPath id="clip-path-2">
      <rect id="Rectangle_1561" data-name="Rectangle 1561" width="187" height="381" transform="translate(-0.148 0)" fill="#fff" stroke="#707070" stroke-width="1"/>
    </clipPath>
  </defs>
  <g id="_5estrellas" data-name="5estrellas" transform="translate(-4536 -1707)">
    <g id="icono_5estrellas" transform="translate(4814.601 1777.481)">
      <g id="favorite">
        <path id="Path_6584" data-name="Path 6584" d="M375.832,103.227l-82.925-17.5L250.64,12.27V215.812L328.011,250.4l-8.981-84.274Z" transform="translate(-125.448 -12.27)" fill="#ffcd00"/>
        <path id="Path_6585" data-name="Path 6585" d="M82.925,85.725,0,103.227l56.8,62.9L47.821,250.4l77.371-34.585V12.27Z" transform="translate(0 -12.27)" fill="#ffda44"/>
      </g>
      <g id="favorite-2" data-name="favorite" transform="translate(260.734)">
        <path id="Path_6584-2" data-name="Path 6584" d="M375.832,103.227l-82.925-17.5L250.64,12.27V215.812L328.011,250.4l-8.981-84.274Z" transform="translate(-125.448 -12.27)" fill="#ffcd00"/>
        <path id="Path_6585-2" data-name="Path 6585" d="M82.925,85.725,0,103.227l56.8,62.9L47.821,250.4l77.371-34.585V12.27Z" transform="translate(0 -12.27)" fill="#ffda44"/>
      </g>
      <g id="favorite-3" data-name="favorite" transform="translate(521.468)">
        <path id="Path_6584-3" data-name="Path 6584" d="M375.832,103.227l-82.925-17.5L250.64,12.27V215.812L328.011,250.4l-8.981-84.274Z" transform="translate(-125.448 -12.27)" fill="#ffcd00"/>
        <path id="Path_6585-3" data-name="Path 6585" d="M82.925,85.725,0,103.227l56.8,62.9L47.821,250.4l77.371-34.585V12.27Z" transform="translate(0 -12.27)" fill="#ffda44"/>
      </g>
      <g id="favorite-4" data-name="favorite" transform="translate(782.201)">
        <path id="Path_6584-4" data-name="Path 6584" d="M375.832,103.227l-82.925-17.5L250.64,12.27V215.812L328.011,250.4l-8.981-84.274Z" transform="translate(-125.448 -12.27)" fill="#ffcd00"/>
        <path id="Path_6585-4" data-name="Path 6585" d="M82.925,85.725,0,103.227l56.8,62.9L47.821,250.4l77.371-34.585V12.27Z" transform="translate(0 -12.27)" fill="#ffda44"/>
      </g>
      <g id="favorite-5" data-name="favorite" transform="translate(1042.935)">
        <path id="Path_6584-5" data-name="Path 6584" d="M375.832,103.227l-82.925-17.5L250.64,12.27V215.812L328.011,250.4l-8.981-84.274Z" transform="translate(-125.448 -12.27)" fill="url(#linear-gradient)"/>
        <path id="Path_6585-5" data-name="Path 6585" d="M82.925,85.725,0,103.227l56.8,62.9L47.821,250.4l77.371-34.585V12.27Z" transform="translate(0 -12.27)" fill="#ffda44"/>
      </g>
    </g>
    <g id="Mask_Group_141" data-name="Mask Group 141" transform="translate(4536 1707)" clip-path="url(#clip-path)">
      <g id="wreath" transform="translate(7.637 32.325)">
        <path id="Path_12219" data-name="Path 12219" d="M393.819,294.172a36.828,36.828,0,0,0,20.051,23.886,36.877,36.877,0,0,0-9.383-51.606,5.715,5.715,0,0,0-8.294,2.222A36.746,36.746,0,0,0,393.819,294.172Z" transform="translate(-120.024 -89.819)" fill="#ffe07d"/>
        <path id="Path_12220" data-name="Path 12220" d="M406.965,215.06a36.829,36.829,0,0,0,29.308,10.661,36.877,36.877,0,0,0-33.928-40,5.715,5.715,0,0,0-6.072,6.072A36.736,36.736,0,0,0,406.965,215.06Z" transform="translate(-121.156 -65.425)" fill="#ffe07d"/>
        <path id="Path_12221" data-name="Path 12221" d="M483.343,256.155a36.829,36.829,0,0,1-29.308,10.661,36.877,36.877,0,0,1,33.928-40,5.715,5.715,0,0,1,6.072,6.072A36.733,36.733,0,0,1,483.343,256.155Z" transform="translate(-138.779 -77.99)" fill="#fff0af"/>
        <path id="Path_12222" data-name="Path 12222" d="M433.6,372.934a36.828,36.828,0,0,1-30.712-5.421,36.876,36.876,0,0,1,49.383-17.677,5.715,5.715,0,0,1,2.222,8.294A36.732,36.732,0,0,1,433.6,372.934Z" transform="translate(-123.182 -114.496)" fill="#fff0af"/>
        <path id="Path_12223" data-name="Path 12223" d="M393.784,34.313a36.828,36.828,0,0,1-5.421,30.712,36.877,36.877,0,0,1-17.677-49.383,5.715,5.715,0,0,1,8.294-2.222A36.739,36.739,0,0,1,393.784,34.313Z" transform="translate(-112.225 -12.454)" fill="#fff0af"/>
        <path id="Path_12224" data-name="Path 12224" d="M315.022,84.909a36.827,36.827,0,0,0,23.886-20.051A36.877,36.877,0,0,0,287.3,74.24a5.715,5.715,0,0,0,2.222,8.294A36.741,36.741,0,0,0,315.022,84.909Z" transform="translate(-87.548 -26.432)" fill="#ffe07d"/>
        <path id="Path_12225" data-name="Path 12225" d="M336.443,448.916a36.828,36.828,0,0,1-23.886-20.051,36.877,36.877,0,0,1,51.606,9.383,5.715,5.715,0,0,1-2.222,8.294A36.741,36.741,0,0,1,336.443,448.916Z" transform="translate(-95.564 -137.727)" fill="#fff0af"/>
        <path id="Path_12226" data-name="Path 12226" d="M339.68,357.225a36.828,36.828,0,0,0,5.421,30.712,36.876,36.876,0,0,0,17.677-49.383,5.715,5.715,0,0,0-8.294-2.222A36.735,36.735,0,0,0,339.68,357.225Z" transform="translate(-103.471 -111.185)" fill="#ffe07d"/>
        <path id="Path_12227" data-name="Path 12227" d="M469.579,132.162a36.83,36.83,0,0,1-20.051,23.887,36.877,36.877,0,0,1,9.383-51.606,5.715,5.715,0,0,1,8.294,2.222A36.738,36.738,0,0,1,469.579,132.162Z" transform="translate(-135.399 -40.285)" fill="#fff0af"/>
        <path id="Path_12228" data-name="Path 12228" d="M377.888,139.745a36.829,36.829,0,0,0,30.712-5.421,36.877,36.877,0,0,0-49.384-17.677,5.715,5.715,0,0,0-2.222,8.294A36.739,36.739,0,0,0,377.888,139.745Z" transform="translate(-108.856 -43.198)" fill="#ffe07d"/>
        <path id="Path_12229" data-name="Path 12229" d="M105.585,294.172a36.828,36.828,0,0,1-20.051,23.886,36.877,36.877,0,0,1,9.383-51.606,5.715,5.715,0,0,1,8.294,2.222,36.741,36.741,0,0,1,2.374,25.5Z" transform="translate(-24.108 -89.819)" fill="#fff0af"/>
        <path id="Path_12230" data-name="Path 12230" d="M87.086,215.06a36.829,36.829,0,0,1-29.309,10.661,36.877,36.877,0,0,1,33.928-40,5.715,5.715,0,0,1,6.072,6.072A36.733,36.733,0,0,1,87.086,215.06Z" transform="translate(-17.624 -65.425)" fill="#fff0af"/>
        <g id="Group_3542" data-name="Group 3542" transform="translate(0 0)">
          <path id="Path_12231" data-name="Path 12231" d="M10.708,256.155a36.829,36.829,0,0,0,29.309,10.661,36.877,36.877,0,0,0-33.928-40,5.715,5.715,0,0,0-6.072,6.072A36.733,36.733,0,0,0,10.708,256.155Z" transform="translate(-0.001 -77.99)" fill="#ffe07d"/>
          <path id="Path_12232" data-name="Path 12232" d="M54.988,372.934A36.828,36.828,0,0,0,85.7,367.512a36.876,36.876,0,0,0-49.383-17.677,5.715,5.715,0,0,0-2.222,8.294,36.736,36.736,0,0,0,20.893,14.8Z" transform="translate(-10.13 -114.496)" fill="#ffe07d"/>
          <path id="Path_12233" data-name="Path 12233" d="M105.62,34.313a36.829,36.829,0,0,0,5.421,30.712,36.877,36.877,0,0,0,17.677-49.383,5.715,5.715,0,0,0-8.294-2.222A36.74,36.74,0,0,0,105.62,34.313Z" transform="translate(-31.907 -12.454)" fill="#ffe07d"/>
        </g>
        <path id="Path_12234" data-name="Path 12234" d="M173.562,84.909a36.828,36.828,0,0,1-23.886-20.051,36.877,36.877,0,0,1,51.606,9.383,5.715,5.715,0,0,1-2.222,8.294A36.741,36.741,0,0,1,173.562,84.909Z" transform="translate(-45.764 -26.432)" fill="#fff0af"/>
        <path id="Path_12235" data-name="Path 12235" d="M152.141,448.916a36.831,36.831,0,0,0,23.887-20.051,36.877,36.877,0,0,0-51.606,9.383,5.715,5.715,0,0,0,2.222,8.294A36.739,36.739,0,0,0,152.141,448.916Z" transform="translate(-37.748 -137.727)" fill="#ffe07d"/>
        <path id="Path_12236" data-name="Path 12236" d="M159.724,357.225a36.829,36.829,0,0,1-5.421,30.712,36.876,36.876,0,0,1-17.677-49.383,5.715,5.715,0,0,1,8.294-2.222A36.733,36.733,0,0,1,159.724,357.225Z" transform="translate(-40.661 -111.185)" fill="#fff0af"/>
        <path id="Path_12237" data-name="Path 12237" d="M29.825,132.162a36.83,36.83,0,0,0,20.051,23.887,36.877,36.877,0,0,0-9.383-51.606,5.715,5.715,0,0,0-8.294,2.222A36.738,36.738,0,0,0,29.825,132.162Z" transform="translate(-8.733 -40.285)" fill="#ffe07d"/>
        <path id="Path_12238" data-name="Path 12238" d="M110.7,139.745a36.828,36.828,0,0,1-30.712-5.421,36.877,36.877,0,0,1,49.383-17.677,5.715,5.715,0,0,1,2.222,8.294A36.74,36.74,0,0,1,110.7,139.745Z" transform="translate(-24.456 -43.198)" fill="#fff0af"/>
        <path id="Path_12239" data-name="Path 12239" d="M335.955,172.924A142.707,142.707,0,0,0,216.546,31.813a5.732,5.732,0,0,0-1.9,11.306,131.276,131.276,0,0,1,109.849,129.8c0,72.687-59.134,131.822-131.822,131.822S60.847,245.611,60.847,172.924A131.276,131.276,0,0,1,170.7,43.119a5.732,5.732,0,0,0-1.9-11.306A142.707,142.707,0,0,0,49.384,172.924c0,74.555,57.242,135.964,130.082,142.653L148.5,346.545a5.731,5.731,0,1,0,8.1,8.1l36.068-36.068,36.068,36.068a5.731,5.731,0,0,0,8.1-8.1l-30.968-30.968C278.713,308.888,335.955,247.479,335.955,172.924Z" transform="translate(-15.1 -18.349)" fill="#ffd064"/>
      </g>
    </g>
    <g id="Mask_Group_140" data-name="Mask Group 140" transform="translate(6200.148 1707)" clip-path="url(#clip-path-2)">
      <g id="wreath-2" data-name="wreath" transform="translate(-177.502 32.325)">
        <path id="Path_12198" data-name="Path 12198" d="M419.292,294.172a36.828,36.828,0,0,1-20.051,23.886,36.877,36.877,0,0,1,9.383-51.606,5.715,5.715,0,0,1,8.294,2.222A36.745,36.745,0,0,1,419.292,294.172Z" transform="translate(-337.816 -89.819)" fill="#ffe07d"/>
        <path id="Path_12199" data-name="Path 12199" d="M425.7,215.06A36.829,36.829,0,0,1,396.4,225.721a36.877,36.877,0,0,1,33.928-40,5.715,5.715,0,0,1,6.072,6.072A36.737,36.737,0,0,1,425.7,215.06Z" transform="translate(-356.242 -65.425)" fill="#ffe07d"/>
        <path id="Path_12200" data-name="Path 12200" d="M464.6,256.155a36.829,36.829,0,0,0,29.309,10.661,36.877,36.877,0,0,0-33.928-40,5.716,5.716,0,0,0-6.072,6.072A36.734,36.734,0,0,0,464.6,256.155Z" transform="translate(-453.896 -77.99)" fill="#fff0af"/>
        <path id="Path_12201" data-name="Path 12201" d="M424.741,372.934a36.828,36.828,0,0,0,30.712-5.421,36.875,36.875,0,0,0-49.383-17.677,5.715,5.715,0,0,0-2.222,8.294A36.732,36.732,0,0,0,424.741,372.934Z" transform="translate(-379.884 -114.496)" fill="#fff0af"/>
        <path id="Path_12202" data-name="Path 12202" d="M368.311,34.313a36.829,36.829,0,0,0,5.422,30.712,36.877,36.877,0,0,0,17.677-49.383,5.715,5.715,0,0,0-8.294-2.222A36.74,36.74,0,0,0,368.311,34.313Z" transform="translate(-294.598 -12.454)" fill="#fff0af"/>
        <path id="Path_12203" data-name="Path 12203" d="M310.224,84.909a36.828,36.828,0,0,1-23.886-20.051,36.877,36.877,0,0,1,51.606,9.383,5.715,5.715,0,0,1-2.222,8.294A36.741,36.741,0,0,1,310.224,84.909Z" transform="translate(-182.426 -26.432)" fill="#ffe07d"/>
        <path id="Path_12204" data-name="Path 12204" d="M341.241,448.916a36.828,36.828,0,0,0,23.886-20.051,36.877,36.877,0,0,0-51.606,9.383,5.715,5.715,0,0,0,2.222,8.294A36.741,36.741,0,0,0,341.241,448.916Z" transform="translate(-226.848 -137.727)" fill="#fff0af"/>
        <path id="Path_12205" data-name="Path 12205" d="M365.153,357.225a36.829,36.829,0,0,1-5.421,30.712,36.876,36.876,0,0,1-17.677-49.383,5.715,5.715,0,0,1,8.294-2.222A36.735,36.735,0,0,1,365.153,357.225Z" transform="translate(-246.09 -111.185)" fill="#ffe07d"/>
        <path id="Path_12206" data-name="Path 12206" d="M444.106,132.162a36.83,36.83,0,0,0,20.051,23.887,36.877,36.877,0,0,0-9.383-51.606,5.715,5.715,0,0,0-8.294,2.222A36.739,36.739,0,0,0,444.106,132.162Z" transform="translate(-423.013 -40.285)" fill="#fff0af"/>
        <path id="Path_12207" data-name="Path 12207" d="M386.742,139.745a36.828,36.828,0,0,1-30.712-5.421,36.877,36.877,0,0,1,49.383-17.677,5.715,5.715,0,0,1,2.222,8.294A36.74,36.74,0,0,1,386.742,139.745Z" transform="translate(-300.501 -43.198)" fill="#ffe07d"/>
        <path id="Path_12208" data-name="Path 12208" d="M80.112,294.172a36.828,36.828,0,0,0,20.051,23.886,36.877,36.877,0,0,0-9.383-51.606,5.715,5.715,0,0,0-8.294,2.222A36.741,36.741,0,0,0,80.112,294.172Z" transform="translate(193.684 -89.819)" fill="#fff0af"/>
        <path id="Path_12209" data-name="Path 12209" d="M68.347,215.06a36.829,36.829,0,0,0,29.309,10.661,36.877,36.877,0,0,0-33.928-40,5.715,5.715,0,0,0-6.072,6.072A36.733,36.733,0,0,0,68.347,215.06Z" transform="translate(217.463 -65.425)" fill="#fff0af"/>
        <g id="Group_3541" data-name="Group 3541" transform="translate(254.822)">
          <path id="Path_12210" data-name="Path 12210" d="M29.448,256.155A36.829,36.829,0,0,1,.14,266.816a36.877,36.877,0,0,1,33.928-40,5.715,5.715,0,0,1,6.072,6.072A36.733,36.733,0,0,1,29.448,256.155Z" transform="translate(60.295 -77.99)" fill="#ffe07d"/>
          <path id="Path_12211" data-name="Path 12211" d="M63.842,372.934a36.828,36.828,0,0,1-30.712-5.421,36.876,36.876,0,0,1,49.383-17.677,5.715,5.715,0,0,1,2.222,8.294A36.736,36.736,0,0,1,63.842,372.934Z" transform="translate(-8.249 -114.496)" fill="#ffe07d"/>
          <path id="Path_12212" data-name="Path 12212" d="M131.093,34.313a36.829,36.829,0,0,1-5.421,30.712,36.877,36.877,0,0,1-17.677-49.383,5.715,5.715,0,0,1,8.294-2.222A36.74,36.74,0,0,1,131.093,34.313Z" transform="translate(-104.355 -12.454)" fill="#ffe07d"/>
        </g>
        <path id="Path_12213" data-name="Path 12213" d="M178.36,84.909a36.828,36.828,0,0,0,23.886-20.051A36.877,36.877,0,0,0,150.64,74.24a5.715,5.715,0,0,0,2.222,8.294A36.741,36.741,0,0,0,178.36,84.909Z" transform="translate(49.114 -26.432)" fill="#fff0af"/>
        <path id="Path_12214" data-name="Path 12214" d="M147.345,448.916a36.831,36.831,0,0,1-23.887-20.051,36.877,36.877,0,0,1,51.606,9.383,5.715,5.715,0,0,1-2.222,8.294A36.739,36.739,0,0,1,147.345,448.916Z" transform="translate(93.534 -137.727)" fill="#ffe07d"/>
        <path id="Path_12215" data-name="Path 12215" d="M134.251,357.225a36.829,36.829,0,0,0,5.421,30.712,36.876,36.876,0,0,0,17.677-49.383,5.715,5.715,0,0,0-8.294-2.222A36.732,36.732,0,0,0,134.251,357.225Z" transform="translate(101.958 -111.185)" fill="#fff0af"/>
        <path id="Path_12216" data-name="Path 12216" d="M55.3,132.162a36.83,36.83,0,0,1-20.051,23.887,36.877,36.877,0,0,1,9.383-51.606,5.715,5.715,0,0,1,8.294,2.222A36.738,36.738,0,0,1,55.3,132.162Z" transform="translate(278.882 -40.285)" fill="#ffe07d"/>
        <path id="Path_12217" data-name="Path 12217" d="M101.842,139.745a36.828,36.828,0,0,0,30.712-5.421,36.877,36.877,0,0,0-49.383-17.677,5.715,5.715,0,0,0-2.222,8.294A36.74,36.74,0,0,0,101.842,139.745Z" transform="translate(167.189 -43.198)" fill="#fff0af"/>
        <path id="Path_12218" data-name="Path 12218" d="M49.384,172.924A142.707,142.707,0,0,1,168.792,31.813a5.732,5.732,0,0,1,1.9,11.306,131.276,131.276,0,0,0-109.849,129.8c0,72.687,59.134,131.822,131.822,131.822s131.823-59.136,131.823-131.822a131.276,131.276,0,0,0-109.849-129.8,5.732,5.732,0,1,1,1.9-11.306A142.707,142.707,0,0,1,335.955,172.924c0,74.555-57.242,135.964-130.082,142.653l30.968,30.968a5.731,5.731,0,0,1-8.1,8.1l-36.068-36.068L156.6,354.65a5.731,5.731,0,0,1-8.1-8.1l30.968-30.968C106.626,308.888,49.384,247.479,49.384,172.924Z" transform="translate(-14.967 -18.349)" fill="#ffd064"/>
      </g>
    </g>
  </g>
</svg>
